<svg width="24" height="24" viewBox="0 0 24 24" fill="none" xmlns="http://www.w3.org/2000/svg">
<path d="M23.5449 17.8158L14.8959 2.83727C13.608 0.607629 10.39 0.607629 9.10216 2.83727L0.453146 17.8158C-0.834722 20.0454 0.775945 22.8342 3.35168 22.8342H20.6497C23.2254 22.8342 24.8328 20.0454 23.5482 17.8158H23.5449ZM20.6497 19.6794H3.35168C3.16865 19.6794 3.15534 19.4864 3.15534 19.483C3.15534 19.4731 3.15534 19.4464 3.18529 19.3932L11.8343 4.41466C11.8576 4.37473 11.8909 4.31815 12.0007 4.31815C12.1105 4.31815 12.1438 4.37473 12.1671 4.41466L20.8161 19.3965C20.846 19.4498 20.846 19.4764 20.846 19.4864C20.846 19.4864 20.8361 19.6827 20.6497 19.6827V19.6794Z" fill="#3D8FF4"/>
<path d="M23.5446 17.8155L14.8956 2.83698C14.2533 1.72216 13.1252 1.16309 11.9971 1.16309V4.31786C12.1069 4.31786 12.1402 4.37444 12.1635 4.41437L20.8125 19.3962C20.8424 19.4495 20.8424 19.4761 20.8424 19.4861C20.8424 19.4861 20.8324 19.6824 20.6461 19.6824H3.35138C3.27484 19.6824 3.22825 19.6491 3.1983 19.6059L0.965332 21.8389C1.55768 22.4445 2.38631 22.8372 3.35138 22.8372H20.6494C23.2251 22.8372 24.8325 20.0485 23.5479 17.8188L23.5446 17.8155Z" fill="#3F96F2"/>
<path d="M23.5449 17.8158L14.8959 2.83727C13.608 0.607629 10.39 0.607629 9.10216 2.83727L0.453146 17.8158C-0.834722 20.0454 0.775945 22.8342 3.35168 22.8342H20.6497C23.2254 22.8342 24.8328 20.0454 23.5482 17.8158H23.5449ZM20.6497 19.6794H3.35168C3.16865 19.6794 3.15534 19.4864 3.15534 19.483C3.15534 19.4731 3.15534 19.4464 3.18529 19.3932L11.8343 4.41466C11.8576 4.37473 11.8909 4.31815 12.0007 4.31815C12.1105 4.31815 12.1438 4.37473 12.1671 4.41466L20.8161 19.3965C20.846 19.4498 20.846 19.4764 20.846 19.4864C20.846 19.4864 20.8361 19.6827 20.6497 19.6827V19.6794Z" fill="url(#paint0_linear_2620_8270)"/>
<path d="M23.5446 17.8155L14.8956 2.83698C14.2533 1.72216 13.1252 1.16309 11.9971 1.16309V4.31786C12.1069 4.31786 12.1402 4.37444 12.1635 4.41437L20.8125 19.3962C20.8424 19.4495 20.8424 19.4761 20.8424 19.4861C20.8424 19.4861 20.8324 19.6824 20.6461 19.6824H3.35138C3.27484 19.6824 3.22825 19.6491 3.1983 19.6059L0.965332 21.8389C1.55768 22.4445 2.38631 22.8372 3.35138 22.8372H20.6494C23.2251 22.8372 24.8325 20.0485 23.5479 17.8188L23.5446 17.8155Z" fill="url(#paint1_linear_2620_8270)"/>
<path d="M20.8025 19.6055C20.7725 19.6454 20.7293 19.682 20.6494 19.682H3.35138C3.27484 19.682 3.22825 19.6487 3.1983 19.6055L0.965332 21.8384C1.55768 22.4441 2.38631 22.8368 3.35138 22.8368H20.6494C21.6145 22.8368 22.4431 22.4474 23.0355 21.8384L20.8025 19.6055Z" fill="url(#paint2_linear_2620_8270)"/>
<path d="M13.731 14.6006C13.731 15.5557 12.9556 16.3311 12.0005 16.3311C11.0454 16.3311 10.27 15.5557 10.27 14.6006C10.27 13.6455 11.0454 12.8701 12.0005 12.8701C12.9556 12.8701 13.731 13.6455 13.731 14.6006Z" fill="url(#paint3_linear_2620_8270)"/>
<defs>
<linearGradient id="paint0_linear_2620_8270" x1="0" y1="11.9884" x2="23.9964" y2="11.9884" gradientUnits="userSpaceOnUse">
<stop stop-color="#B1A4FD"/>
<stop offset="1" stop-color="#9747FF"/>
</linearGradient>
<linearGradient id="paint1_linear_2620_8270" x1="0.965332" y1="11.989" x2="23.9962" y2="11.989" gradientUnits="userSpaceOnUse">
<stop stop-color="#B1A4FD"/>
<stop offset="1" stop-color="#9747FF"/>
</linearGradient>
<linearGradient id="paint2_linear_2620_8270" x1="0.965332" y1="21.2195" x2="23.0321" y2="21.2195" gradientUnits="userSpaceOnUse">
<stop stop-color="#B1A4FD"/>
<stop offset="1" stop-color="#9747FF"/>
</linearGradient>
<linearGradient id="paint3_linear_2620_8270" x1="10.27" y1="14.5988" x2="13.7304" y2="14.5988" gradientUnits="userSpaceOnUse">
<stop stop-color="#B1A4FD"/>
<stop offset="1" stop-color="#9747FF"/>
</linearGradient>
</defs>
</svg>
